<?xml version="1.0" encoding="UTF-8" standalone="no"?>
<!-- Created with Inkscape (http://www.inkscape.org/) -->

<svg
   xmlns:dc="http://purl.org/dc/elements/1.1/"
   xmlns:cc="http://creativecommons.org/ns#"
   xmlns:rdf="http://www.w3.org/1999/02/22-rdf-syntax-ns#"
   xmlns:svg="http://www.w3.org/2000/svg"
   xmlns="http://www.w3.org/2000/svg"
   xmlns:sodipodi="http://sodipodi.sourceforge.net/DTD/sodipodi-0.dtd"
   xmlns:inkscape="http://www.inkscape.org/namespaces/inkscape"
   width="1601.7723"
   height="379.95938"
   id="svg3167"
   version="1.1"
   inkscape:version="0.48.3.1 r9886"
   sodipodi:docname="scnu_title.svg">
  <defs
     id="defs3169">
    <filter
       id="filter2983"
       inkscape:label="Desaturate"
       x="0"
       y="0"
       width="1"
       height="1"
       inkscape:menu="Color"
       inkscape:menu-tooltip="Render in shades of gray by reducing saturation to zero"
       color-interpolation-filters="sRGB">
      <feColorMatrix
         id="feColorMatrix2985"
         type="saturate"
         values="0" />
    </filter>
  </defs>
  <sodipodi:namedview
     id="base"
     pagecolor="#ffffff"
     bordercolor="#666666"
     borderopacity="1.0"
     inkscape:pageopacity="0.0"
     inkscape:pageshadow="2"
     inkscape:zoom="0.7"
     inkscape:cx="1148.1256"
     inkscape:cy="262.2927"
     inkscape:document-units="px"
     inkscape:current-layer="layer1"
     showgrid="false"
     fit-margin-top="0"
     fit-margin-left="0"
     fit-margin-right="0"
     fit-margin-bottom="0"
     inkscape:window-width="1600"
     inkscape:window-height="876"
     inkscape:window-x="0"
     inkscape:window-y="24"
     inkscape:window-maximized="1" />
  <metadata
     id="metadata3172">
    <rdf:RDF>
      <cc:Work
         rdf:about="">
        <dc:format>image/svg+xml</dc:format>
        <dc:type
           rdf:resource="http://purl.org/dc/dcmitype/StillImage" />
        <dc:title></dc:title>
      </cc:Work>
    </rdf:RDF>
  </metadata>
  <g
     inkscape:label="Layer 1"
     inkscape:groupmode="layer"
     id="layer1"
     transform="translate(-55.31763,-456.52974)">
    <path
       inkscape:connector-curvature="0"
       id="path98"
       d="m 94.939442,484.23306 c 2.3725,0.74875 4.746249,0.12375 7.118748,-0.55125 0,-1.94125 0,-2.685 0,-4.62625 -0.64375,-3.07625 -1.63,-4.50875 -4.529998,-5.10125 3.019998,-2.48 6.039998,-5.36 9.059998,-7.84125 2.15875,-2.555 4.79375,-1.565 6.47125,4.20625 -0.32375,3.34375 -2.11125,7.48625 -3.5,11.095 11.58875,-1.82125 25.44125,-11.0325 32.29625,-22.41875 1.74125,-2.935 3.72625,-2.9425 5.82375,-1.6175 0.4375,0.3375 1.4075,1.73875 2.91125,4.205 1.135,1.055 1.02625,2.99625 -0.3225,5.825 -30.89375,16.57125 -40.6975,18.9725 -42.04375,19.4125 -0.96625,2.5125 -1.28625,8.36624 -1.96,15.50999 2.44875,-0.1075 6.005,-2.47875 7.74375,-2.58625 1.05375,-3.555 1.33,-5.85249 1.46375,-6.78499 0.26,-1.81375 2.25625,-2.06375 4.4175,-0.59875 1.2975,0.88 2.655,1.71249 3.735,3.86124 1.23,-0.425 4.12875,0.45625 5.36,-0.9725 2.3525,-2.72999 2.94125,-8.03374 4.7825,-10.36999 0.53,-4.48125 5.705,-0.815 3.55875,2.05625 -2.35875,3.02 -3.65375,6.57125 -3.8825,9.59249 7.02625,0.37125 9.92625,-8.43999 12.69375,-7.13749 2.9025,2.075 4.87375,5.47999 -0.075,6.48999 -4.9675,1.76125 -10,3.04875 -12.91125,5.11 -4.36125,3.09 -7.8725,8.39625 -12.68875,12.83875 -0.8,3.8825 -1.9525,5.575 -2.6625,12.385 10.16,-2.76125 21.14,-5.4775 29.88,-9.3025 4.32,-2.69375 8.33,-0.71 12.295,1.94125 2.9425,1.96125 -0.34875,2.98875 -4.53,3.8825 -15.345,-0.50375 -38.65,7.515 -39.0375,8.465 -1.57625,13.9175 -2.0425,15.57125 -1.66,19.705 2.9975,-0.41375 7.48875,-0.695 10.91,0.585 2.03625,1.105 2.81125,4.27375 1.63875,8.13 -4.22,-0.2575 -9.415,-0.685 -13.17625,0.43375 -0.215,10.57 0.7725,21.655 0.5575,32.22499 -1.5375,12.525 -5.2825,14.04 -10.03,10.05 -3.06125,-3.235 -5.433749,-8.01875 -7.806248,-11.25375 2.521249,0.04 5.729998,2.31625 6.876248,0.9825 2.97625,-3.42375 3.6025,-18.28499 2.91125,-27.55499 0.35,-2.77625 -7.752499,4.63625 -11.041248,7.4125 -1.59,2.3875 -3.64,2.71 -6.1475,0.97125 -1.18625,-1.61875 -2.3725,-3.23625 -3.55875,-4.85375 -3.043749,-2.04875 -4.821249,-4.09875 2.265,-6.1475 6.68625,-1.62875 13.746248,-5.12875 20.433748,-9.535 0.39875,-5.60875 1.35625,-12.435 1.35625,-18.0425 -12.329998,4.37875 -38.132496,25.61125 -44.762495,25.3125 -7.185,-1.22875 -12.874999,-2.80375 -8.08875,-6.795 22.018748,-6.565 38.126247,-15.4225 53.441245,-24.38125 1.51,-7.55 2.35375,-18.02625 2.66625,-25.31 -4.1325,0.435 -14.468749,7.7475 -17.262498,9.61 -0.83875,0.83125 -2.0675,3.8425 -4.30625,4.105 -2.9025,0.34 -9.703749,1.895 -8.367499,-3.61125 0.98875,-2.2375 3.452499,-3.1025 6.611249,-3.94 8.939999,-2.37 11.732498,-5.485 12.034998,-6.375 1.0775,-4.20625 0.42625,-12.40499 -0.49125,-12.21999 -3.183749,-0.685 -5.124998,-1.5475 -5.823748,-2.5875 -1.10625,-1.295 -0.96625,-2.58875 -0.6475,-3.8825 z m 128.127488,-17.4725 c 0.99875,-0.69875 1.4,0.6125 3.02625,3.16875 2.23625,3.5125 6.9975,5.44875 7.975,13.00875 0.21625,3.1275 -0.0288,7.17625 0.18625,10.30375 10.6575,-0.495 14.3525,2.50374 13.9075,5.73124 -8.21125,2.7225 -21.25875,11.6625 -25.095,15.9975 -1.725,4.6375 -2.5725,4.76625 -5.46125,13.06 11.12375,-4.76875 24.095,-11.02875 37.49375,-19.2075 7.06,-2.03 9.04375,0.8775 7.765,9.05875 -2.265,8.08875 -4.53,16.1775 -6.795,24.26625 -0.32375,10.6775 -0.6475,21.355 -0.97,32.0325 -1.99125,5.34125 -4.10125,9.02375 -6.47125,9.06 -2.06375,2.1325 -16.235,-20.08375 -23.3425,-22.95875 0.195,4.95375 -1.235,6.09625 -5.65375,8.62125 -0.20125,-0.45875 -0.47,4.23375 -0.72125,6.0375 -0.3625,2.6075 -3.49375,3.74625 -3.78125,1.6825 -0.14375,-1.03125 0.0425,-4.49 -0.0225,-6.7025 -6.1875,0.98 -7.195,-0.69 -8.325,-3.8825 1.75375,-0.095 6.70125,-2.9875 6.68125,-3.67625 l -0.1025,-3.38875 c -1.565,-0.2675 -2.50375,-1.13125 -3.31125,-2.15625 8.92375,-5.67375 18.21,-15.4575 19.47875,-21.48375 -5.1775,2.48125 -10.99,7.57 -16.1675,10.05125 -7.5475,2.17625 -9.61124,-0.67625 -11.21874,-5.6275 -6.68625,2.48 -17.30625,5.0875 -23.9925,7.56875 0.755,4.09875 3.5825,8.6575 4.33625,12.755 2.405,9.64125 0.665,13.91 -4.29875,13.72625 -3.36625,-3.555 -3.65375,-7.1875 -3.33625,-16.885 0.085,-2.245 0.63875,-9.73 1.785,-11.8675 0.43,-0.80375 0.9525,1.3275 1.155,1.2825 0.26875,-0.0488 -0.17,-0.36875 6.4875,-4.70625 9.065,-2.08 15.3925,-2.715 25.69624,-12.23375 3.62625,-3.73 4.45875,-9.0925 4.675,-12.1125 -2.925,0.4825 -7.07375,1.79 -9.2875,1.66875 -5.65624,-0.3125 -10.81624,-3.375 -13.34999,-6.615 15.68749,-0.78875 19.61124,-2.61375 28.23624,-8.2375 0.86375,-11.75624 1.95625,-25.58374 2.81875,-37.33999 z m -14.56,69.88749 c -0.935,3.3425 0.26125,5.14375 6.1475,3.55875 6.04,-3.77375 12.08,-7.54875 18.12,-11.32375 3.48375,-2.33375 5.3175,-1.255 5.5,3.235 -4.53,5.3925 -10.46375,11.34375 -14.9925,16.7375 0.32375,0.3775 1.49625,1.29125 1.80875,1.3975 0.9375,0.32 2.47125,-0.47875 4.1875,-0.8375 0.75375,2.96375 -1.46875,3.87875 -3.5725,5.39875 l -0.18375,3.19125 c -0.001,0.03 1.5675,0.29 4.66375,2.2625 5.6075,3.99 12.35375,13.5225 16.54,12.68125 5.3075,-0.675 2.6575,-18.83 3.84375,-27.88875 3.53625,-15.0875 9.33125,-32.16875 6.51,-32.56125 -16.285,7.76625 -32.28625,16.38375 -48.5725,24.14875 z m 105.0225,-51.97749 c 9.845,-2.0725 21.06249,3.51 9.55,15.41624 -13.1575,10.64375 -25.37875,23.14875 -38.53625,33.65 9.785,-11.69375 25.98625,-28.9775 31.035,-36.36875 2.335,-3.41749 1.91,-11.38499 -2.04875,-12.69749 z m -22.51625,66.21374 c -0.60125,7.7425 0.0362,14.84125 0.97125,21.355 2.265,-0.08 4.52875,0.105 6.795,-4.20625 3.39875,-7.10375 -3.035,-14.415 -7.76625,-17.14875 z m 6.83,-16.88 c 6.8675,-3.28375 10.17,-4.4125 14.05625,-9.03875 0.54,-2.80375 1.5475,-6.54375 2.08625,-9.34875 3.6,-1.06 4.45375,1.0675 4.9325,6.87375 0.92375,-0.5525 2.26375,1.3975 2.56875,2.19125 0.67125,1.7475 -1.17375,4.13125 -5.885,5.98 -0.0475,6.5225 1.72125,13.00625 -7.74875,8.035 -0.59375,-0.3125 -1.6125,-0.63625 -2.28,-1.0775 0.425,-0.6675 2.28125,-0.085 2.965,-1.07625 0.53125,-0.77125 -0.0937,-3.135 0.23625,-3.65375 -3.01875,0.21625 -7.9125,0.9 -10.93125,1.115 z m 7.08375,12.67375 c 3.7475,-0.3475 7.36,-1.37125 10.6775,-3.8825 2.485,1.4025 2.16125,3.02 -0.97125,4.85375 -0.21625,1.29375 -0.2975,2.29125 -0.0812,3.15375 1.56875,0.48375 2.07875,1.42875 2.34625,2.34625 -2.34375,2.03375 -5.39875,4.8725 -7.52375,9.95125 -3.285,-4.44125 -2.60875,-5.86625 1.0525,-10.275 0.15625,-0.29625 0.78375,-0.56875 0.69375,-0.87 -0.3675,-1.22 -0.29625,-2.26125 -0.54125,-2.74375 -0.1725,-0.34 -0.8325,-0.23 -1.44625,-0.26875 -2.01125,0.2175 -3.2775,-0.75375 -4.20625,-2.265 z m 30.73749,-27.50125 c -0.16,0.5725 -0.31875,1.19 0.215,1.75625 2.92375,3.0975 8.70625,0.3 10.62375,1.2225 0.43125,0.2075 -0.77,1.3575 -1.75,2.94625 1.18,-0.90375 4.99875,-3.32 6.2925,-3.9475 7.30125,-3.5425 16.1875,-8.3625 18.37375,-9.01875 -0.67375,-1.4775 -2.93125,-4.16125 -5.93,-2.66625 -9.7425,4.17125 -19.25625,7.88375 -27.825,9.7075 z m -10.67749,28.4725 c 10.01249,-0.88 13.45499,-5.10375 16.50124,-6.91875 0.57,-3.46625 0.19875,-7.57875 0.32375,-8.93625 5.17125,-0.625 5.65375,2.14125 7.33375,4.01 3.34375,-1.6175 10.6775,-4.3325 14.02,-5.95125 5.4575,-1.985 5.1475,0.93125 5.1775,3.56 -4.24125,7.5425 -11.92875,12.25 -17.15125,19.61 -2.96125,18.2475 -6.11875,34.73749 -9.70375,47.36499 -3.155,-9.015 -2.30625,-18.95874 -1.07625,-28.24374 1.15125,-8.70625 -0.47,-17.57125 -0.0188,-26.24 -2.845,1.81 -6.68625,3.51875 -10.03,5.02875 -2.92749,0.30375 -5.65374,-1.15625 -5.37624,-3.28375 z m 26.00624,-7.3425 c 5.6775,-5.0525 14.51,-10.40125 15.115,-7.44375 -3.99125,5.265 -13.8675,16.325 -14.865,13.02 0,0 -0.57375,-5.2525 -0.25,-5.57625 z m 58.35125,-43.3925 c -8.47875,6.4 -12.48125,13.31875 -9.675,19.1425 0.85,1.53 1.5475,2.4225 3.745,2.93375 6.02375,-0.93375 5.9125,-7.6925 8.9325,-9.1975 -5.2575,0.50375 -5.31375,-3.71375 -3.0025,-12.87875 z m 11.84375,2.6725 c 6.79375,0.975 15.7475,0.92875 22.54375,-1.1175 -2.7625,16.3375 -19.42625,4.03 -22.54375,1.1175 z m 39.69124,-11.42124 c -0.275,-0.0575 3.08,-1.84875 5.08625,-3.22875 4.58,-3.14875 9.91875,-6.40875 11.02125,1.2975 1.03375,7.2175 -15.66625,11.33749 -17.745,10.93999 0.565,-0.6325 7.7875,-7.71374 1.6375,-9.00874 z m -42.70874,39.09999 c 1.43375,-0.2775 3.69125,-0.775 4.465,-3.4775 l 0.38875,-5.90625 c 2.46,-2.135 3.7975,0.8675 4.27875,3.72125 0.24375,1.44875 1.495,0.77 1.86875,1.1325 0.37125,0.785 -0.43625,2.16 -2.26,4.04125 l 0.22375,3.21875 c 3.43875,-0.97125 6.9,-2.6175 9.27,-2.10125 1.77,0.385 2.04875,1.6925 2.32875,3.605 -2.78,4.86625 -7.50875,8.21 -9.5325,9.2625 0.9875,0.57125 2.31625,2.695 0.94,4.29875 5.1025,1.1525 4.18375,3.56375 3.71125,8.33125 -0.79375,1.9275 -5.76375,6.1825 -12.625,8.90125 -0.92125,9.05875 -0.71875,19.005 -0.7925,28.06499 -2.62,5.2075 -4.10875,1.37625 -5.82375,-0.6475 -1.83375,-4.31374 -3.6675,-8.62749 -5.50125,-12.94124 3.9025,2.7075 5.5675,2.59375 5.6425,0.62375 0.43125,-4.09875 1.49875,-10.58 1.92875,-14.67875 -6.71375,4.095 -15.98625,10.78875 -20.83625,11.46625 -12.84125,0.27125 3.25125,-11.31125 5.82375,-13.26625 -6.84875,12.95625 13.09375,-0.3075 16.09625,-2.02375 10e-4,-1.295 0.3975,-4.11 0.3975,-5.40375 -4.18375,1.14125 -4.22625,-0.22 -4.75,-0.81125 -0.0663,-1.09625 2.69,-2.23125 5.70875,-4.61125 -1.56,-2.53 -1.665,-4.39875 0.655,-6.49625 l -2.9125,-1.2475 c -0.705,-0.30125 -0.51125,-1.64125 -0.54125,-2.30125 -3.55875,2.69625 -7.85875,5.96875 -11.41875,8.665 -4.04,1.64875 -7.30875,2.06 -5.17625,-3.565 2.39875,-1.51 3.66875,-3.02 4.53,-4.53 0.1075,0.54 0.215,1.07875 0.3225,1.6175 4.1025,2.0825 11.30375,-2.90375 17.16,-7.08875 0.10875,-0.6475 0.0512,-3.10625 0.15875,-3.7525 -1.655,-0.755 -3.3925,-1.34625 -3.72875,-2.1 z m 8.70625,5.6625 c 0.86375,-1.48625 5.2375,-2.5475 6.31375,-1.92375 2.10125,2.485 -0.71125,6.68375 -3.7925,5.6925 -0.74125,-0.2375 -0.955,-0.6075 -2.6275,-0.79875 0.1075,-1.07875 -0.002,-1.8925 0.10625,-2.97 z m 36.71874,-17.31125 c 9.675,9.29 -6.51375,12.1325 -7.2075,18.48625 -0.36625,3.365 4.13375,7.63375 6.73375,9.27625 2.8575,1.26375 2.73625,-1.60875 1.31125,-4.9225 -10.16999,-10.2075 20.18875,-11.28375 10.03625,-23.81 -2.22875,-2 -5.3825,2.17125 -10.87375,0.97 z m -14.03999,19.41375 c -1.6425,8.04 -2.73,15.80875 -4.905,20.38375 -0.43875,6.7575 -1.27375,11.8925 -0.91875,15.2075 0.585,4.3325 3.53,5.9925 8.08875,5.82375 11.21624,0.215 24.71624,-1.1575 35.93374,-0.9425 2.06625,-0.4375 4.52875,-1.47125 4.51,-7.47 -1.12125,-8.34 -4.52375,-16.43625 -10.6775,-22.92125 1.90125,4.4225 9.7325,26.22 0.97125,27.45125 -10.13875,0 -20.27625,0 -30.41499,0 -2.28125,-2.555 -1.06625,-8.2875 -0.3225,-13.59 2.02875,-9.89625 -0.6325,-15.33875 0.3225,-23.9425 -0.995,-2.78125 -1.8575,-2.78125 -2.5875,0 z m 95.77124,-52.09249 c 3.99125,3.33 7.98125,6.44 11.97125,13.26624 4.37625,6.3625 1.87125,12.72625 -1.6175,19.09 -3.5825,9.39375 -6.00125,17.7475 -7.625,26.16375 6.875,-1.80625 13.40125,-3.7825 21.9625,-7.61 3.1475,-1.83375 3.7125,-4.42625 3.7825,-6.25875 4.33,-0.21625 12.54749,4.615 3.305,8.12875 -11.41,4.0325 -20.475,7.33625 -30.61,10.7325 -5.97375,24.67625 -15.02625,38.06625 -39.67125,31.28875 23.24625,0.38125 27.16375,-9.0225 34.6875,-28.9375 -8.03375,4.47375 -19.71875,9.14375 -24.98125,8.31625 -2.925,-2.235 -5.49,-4.28875 -6.2325,-7.06875 16.5175,1.83875 35.6175,-6.76875 31.72,-6.945 2.46875,-18.62125 4.2675,-39.0975 3.30875,-60.16624 z m 7.76625,72.44124 c -1.1375,-0.8125 7.49375,17.15125 11.7,24.80875 2.64875,6.4675 8.5425,6.325 15.11124,3.97875 4.0975,-2.69625 8.19625,-5.3925 12.295,-8.08875 -8.8625,3.4 -38.76249,-17.1475 -39.10624,-20.69875 z m 67.29874,-43.96875 c 3.9775,6.91875 5.07125,11.84125 4.85375,15.855 0.14125,1.27125 3.74,3.575 5.5,0.97 1.525,-2.26375 8.85625,-10.64125 13.1425,-14.65625 1.22875,-1.15125 4.965,-2.15625 5.7,-0.9325 0.22125,1.205 1.54125,3.20875 -0.53625,6.91375 1.67,-1.3075 2.75,-1.75875 4.23375,-1.8975 2.16875,-0.20125 6.2475,-0.62125 9.05,-0.13375 -0.345,1.60625 -1.1825,2.96875 -0.60375,5.8975 -22.73875,2.09375 -37.2675,19.62875 -47.78625,32.0125 -4.87375,9.9875 4.91375,11.46625 10.77625,6.1975 15.87125,-17.84875 27.21,-26.1725 39.5,-32.88 5.87375,-0.5975 21.5075,-15.90625 24.6675,-9.5275 4.56375,9.21125 -27.47,24.225 -36.1425,27.125 -1.71625,0.26625 -2.04,1.12875 -0.97,2.58875 1.30375,1.13625 4,1.675 8.08875,1.6175 -1.145,3.60125 -2.465,8.52 -3.21,12.51875 -3.94875,1.16375 -24.87375,6.85625 -37.5575,16.925 -4.60125,4.6925 -2.91125,6.59 -0.32375,8.08874 3.01875,0.97125 5.29375,0.59875 8.31375,1.57 -6.05625,-8.02624 21.85375,-16.34749 27.725,-17.27249 -10e-4,8.19625 0.59625,18.18374 1.64125,26.37999 -8.46125,-0.7375 -17.11875,-4.31125 -24.415,-6.795 7.64125,4.86375 14.56,10.72625 24.2925,14.33625 7.365,5.98125 7.155,-3.9025 7.23375,-7.26875 0.22875,-9.6875 0.3375,-19.37874 0.50625,-29.06874 7.5425,-1.71375 14.0375,-1.33 20.38375,-0.6475 3.2325,-0.35 3.88,-2.29125 1.94125,-5.82375 -1.345,-5.2325 -3.81,-7.72875 -8.73625,-4.20625 -4.31375,0.54 -8.6275,1.07875 -12.9425,1.6175 0.43125,-3.1275 0.71375,-7.44875 1.145,-10.57625 4.54125,-1.68375 8.87,-5.2475 7.10875,-6.89 -1.3125,-1.22375 -3.21875,-0.22625 -3.225,-0.4775 6.055,-4.845 24.45625,-15.59875 24.92625,-23.52 0.36,-6.0325 -9.90375,-4.18625 -15.87875,-3.64125 4.6375,-8.825 9.75875,-18.22125 14.3975,-26.72374 2.8425,-6.79875 1.02375,-8.715 -2.9125,-8.4125 -10.475,4.6175 -22.61375,13.075 -32.10625,19.32749 -2.73875,-0.50125 3.1975,-6.82249 6.67375,-8.97874 2.555,-0.58875 5.71625,-4.265 3.43125,-7.76 -6.58625,-6.6125 -10.8775,-8.66875 -13.26625,-8.08875 1.72375,4.63875 4.3075,8.8475 2.58875,15.2075 -1.3475,2.58875 -5.03875,5.66124 -7.68125,8.24874 -6.36375,-4.20625 -11.51625,-8.89624 -17.88,-13.10249 -4.16,-2.2525 -6.505,-2.5875 -4.8525,1.29375 5.09125,4.11375 9.44,9.61999 12.2475,14.11374 0.89375,4.125 -3.23875,9.34625 0.14,11.2 0.82,0.45 0.365,1.4825 -1.71125,4.13 -3.16875,4.305 -4.92125,3.79125 -6.47,2.58875 -1.875,-2.73 -3.95125,-5.35875 -6.47125,-7.765 -3.13125,-0.905 -3.9925,-0.3925 -4.53,0.3225 z m 22.9725,-6.79375 c 0,0 -2.71625,4.07625 0.005,4.20625 2.72125,0.12875 5.3575,0.0625 5.22375,-0.97125 -0.1325,-1.0325 -0.3,-0.92625 -0.29875,-1.78875 -1.51125,-0.21625 -3.42,-1.23125 -4.93,-1.44625 z m 24.26625,-6.1475 c 8.36625,-6.42499 11.4325,-8.15499 15.85375,-10.63624 2.19625,-1.09875 3.29625,-0.93125 3.59375,0.0325 0.75,2.435 -10.76625,21.49874 -12.10125,26.06249 -3.0425,2.92125 -4.62,0.69 -3.7875,-4.45875 1.29875,-3.105 2.96625,-6.2475 1.0575,-7.505 -1.765,-1.1625 -7.26875,1.4875 -4.61625,-3.495 z m -8.73625,11 c 1.4025,-1.49125 3.50375,-1.68375 4.90625,0.0238 0.18625,1.40875 0.97375,3.53125 -0.47125,6.3 -1.29375,-0.215 -4.0875,0.16875 -5.38125,-0.0462 0.215,-1.72625 0.73125,-4.55125 0.94625,-6.2775 z m -32.67875,40.445 c -0.33,2.44375 -0.01,4.28875 4.85375,1.94125 10.14625,-12.53625 20.765,-20.58375 31.7075,-25.56125 -12.3575,0.69 -24.60125,6.2125 -36.56125,23.62 z"
       style="fill:#0000ff;fill-rule:evenodd;stroke:none;filter:url(#filter2983)"
       transform="matrix(2.5052559,0,0,2.5052559,-83.267185,-687.19407)" />
  </g>
</svg>
